<?xml version="1.0" encoding="UTF-8"?>
<svg version="1.1" xmlns="http://www.w3.org/2000/svg" width="256" height="256">
<path d="M0 0 C-1.4639923 3.06875309 -3.14009636 5.90434743 -5 8.75 C-5.515625 9.54921875 -6.03125 10.3484375 -6.5625 11.171875 C-7.036875 11.77515625 -7.51125 12.3784375 -8 13 C-8.66 13 -9.32 13 -10 13 C-10.2165625 13.680625 -10.433125 14.36125 -10.65625 15.0625 C-12.40440758 18.88405378 -14.82975066 21.78036124 -17.5 25 C-18.58175252 26.32729161 -19.66246271 27.65543335 -20.7421875 28.984375 C-21.28584961 29.65146484 -21.82951172 30.31855469 -22.38964844 31.00585938 C-24.84876459 34.05104748 -27.24257002 37.14465031 -29.625 40.25 C-30.42164063 41.28640625 -31.21828125 42.3228125 -32.0390625 43.390625 C-33.41419208 45.22047871 -34.73031246 47.09546869 -36 49 C-36.66 49 -37.32 49 -38 49 C-38.20625 49.66 -38.4125 50.32 -38.625 51 C-40.49124252 55.07180186 -42.97561527 58.68796998 -46 62 C-46.66 62 -47.32 62 -48 62 C-48.36738281 62.81210938 -48.36738281 62.81210938 -48.7421875 63.640625 C-50.29353788 66.55061143 -52.16714304 69.0974196 -54.125 71.75 C-55.21167969 73.22726563 -55.21167969 73.22726563 -56.3203125 74.734375 C-56.87460938 75.48203125 -57.42890625 76.2296875 -58 77 C-58.66 76.67 -59.32 76.34 -60 76 C-59.24203125 74.31970703 -59.24203125 74.31970703 -58.46875 72.60546875 C-57.81220942 71.13294202 -57.15597534 69.66027861 -56.5 68.1875 C-56.16613281 67.44951172 -55.83226562 66.71152344 -55.48828125 65.95117188 C-55.17246094 65.23896484 -54.85664063 64.52675781 -54.53125 63.79296875 C-54.09135742 62.81106567 -54.09135742 62.81106567 -53.64257812 61.80932617 C-52.83266576 59.84883932 -52.83266576 59.84883932 -53 57 C-52.34 57 -51.68 57 -51 57 C-50.67 55.02 -50.34 53.04 -50 51 C-53.7197707 51.38151494 -56.77620062 52.25475471 -60.140625 53.8125 C-64.81305254 55.93257781 -69.54228791 57.86217105 -74.3125 59.75 C-76.07167233 60.44907346 -77.83078517 61.14829662 -79.58984375 61.84765625 C-80.48300293 62.20230957 -81.37616211 62.55696289 -82.29638672 62.92236328 C-84.95207024 63.98089562 -87.60360389 65.04916723 -90.25390625 66.12109375 C-98.73711165 69.54700362 -107.2217584 72.82930115 -115.86328125 75.8359375 C-119.98212433 77.36447453 -123.93292695 79.1792918 -127.890625 81.08203125 C-130 82 -130 82 -132 82 C-131.9484375 82.89203125 -131.896875 83.7840625 -131.84375 84.703125 C-131.84375 90.49883829 -133.2989254 96.10819553 -134.5 101.75 C-134.97126996 103.99426398 -135.44013545 106.23903462 -135.90625 108.484375 C-136.11572266 109.47147461 -136.32519531 110.45857422 -136.54101562 111.47558594 C-137.08944272 114.06430151 -137.08944272 114.06430151 -137 117 C-135.97261719 117.56847656 -134.94523437 118.13695312 -133.88671875 118.72265625 C-126.51007359 122.8267404 -119.25089484 126.98076619 -112.234375 131.6875 C-109.96437229 133.02092816 -108.60513791 133.70737603 -106 134 C-103.40780526 132.94235883 -103.40780526 132.94235883 -100.74609375 131.24609375 C-99.72580078 130.63830078 -98.70550781 130.03050781 -97.65429688 129.40429688 C-96.59275391 128.75525391 -95.53121094 128.10621094 -94.4375 127.4375 C-92.35378117 126.18467217 -90.26915003 124.93336041 -88.18359375 123.68359375 C-86.63103882 122.74966797 -86.63103882 122.74966797 -85.04711914 121.796875 C-81.32939265 119.6045453 -77.5476448 117.55050552 -73.7487793 115.50317383 C-68.83426498 112.81566476 -64.0167072 109.96204232 -59.1875 107.125 C-46.3515625 99.609375 -46.3515625 99.609375 -40 96 C-32.44239212 91.70271987 -24.94083789 87.30972784 -17.43554688 82.921875 C-15.4898658 81.78467328 -13.54283528 80.64977614 -11.59423828 79.51757812 C-9.98570013 78.5766151 -8.38368018 77.62429166 -6.79248047 76.65429688 C-5.22825464 75.71196295 -3.6187192 74.84530693 -2 74 C-1.34 74.33 -0.68 74.66 0 75 C-11.2704918 85.38763661 -11.2704918 85.38763661 -16.5 90.0625 C-17.0878125 90.58972656 -17.675625 91.11695312 -18.28125 91.66015625 C-20.09580328 93.07468301 -21.91279864 94.04336604 -24 95 C-24 95.66 -24 96.32 -24 97 C-24.66 97 -25.32 97 -26 97 C-26 97.66 -26 98.32 -26 99 C-26.66 99 -27.32 99 -28 99 C-28 99.66 -28 100.32 -28 101 C-29.6796875 102.7265625 -29.6796875 102.7265625 -31.875 104.625 C-32.59429687 105.25664062 -33.31359375 105.88828125 -34.0546875 106.5390625 C-36 108 -36 108 -38 108 C-38 108.66 -38 109.32 -38 110 C-39.6796875 111.7265625 -39.6796875 111.7265625 -41.875 113.625 C-42.59429687 114.25664062 -43.31359375 114.88828125 -44.0546875 115.5390625 C-46 117 -46 117 -48 117 C-48.495 118.485 -48.495 118.485 -49 120 C-50.77734375 121.82421875 -50.77734375 121.82421875 -52.9375 123.6875 C-53.64777344 124.31011719 -54.35804688 124.93273437 -55.08984375 125.57421875 C-57 127 -57 127 -59 127 C-59 127.66 -59 128.32 -59 129 C-60.51227067 130.3302109 -62.08669024 131.59027591 -63.6875 132.8125 C-67.37868524 135.69266426 -70.77696871 138.59279549 -74 142 C-75.62836738 143.7041054 -77.28769752 145.38025441 -79 147 C-79.66 147 -80.32 147 -81 147 C-81 147.66 -81 148.32 -81 149 C-82.64453125 150.69140625 -82.64453125 150.69140625 -84.8125 152.5625 C-85.52019531 153.18253906 -86.22789062 153.80257812 -86.95703125 154.44140625 C-89 156 -89 156 -92 157 C-92 157.66 -92 158.32 -92 159 C-96.47058824 163 -96.47058824 163 -99 163 C-99.268125 163.61875 -99.53625 164.2375 -99.8125 164.875 C-101 167 -101 167 -104 169 C-107.79899836 168.66425833 -110.4955889 167.34636675 -113.72265625 165.3828125 C-114.59083984 164.85816406 -115.45902344 164.33351562 -116.35351562 163.79296875 C-117.24748047 163.24253906 -118.14144531 162.69210938 -119.0625 162.125 C-119.96033203 161.58230469 -120.85816406 161.03960937 -121.78320312 160.48046875 C-128.41764485 156.44554434 -128.41764485 156.44554434 -131.15014648 154.35498047 C-133.12485392 152.90854702 -134.65488773 152.56606158 -137 152 C-137.33 151.34 -137.66 150.68 -138 150 C-138.61875 149.855625 -139.2375 149.71125 -139.875 149.5625 C-142.43283495 148.88542604 -143.15288175 147.8519101 -145 146 C-146.21372776 145.21418588 -147.457355 144.47318864 -148.72265625 143.7734375 C-149.42583984 143.3815625 -150.12902344 142.9896875 -150.85351562 142.5859375 C-151.58248047 142.18632812 -152.31144531 141.78671875 -153.0625 141.375 C-154.16174805 140.76398438 -154.16174805 140.76398438 -155.28320312 140.140625 C-159.11238675 138.01510639 -159.11238675 138.01510639 -163 136 C-163 135.34 -163 134.68 -163 134 C-163.78375 133.690625 -164.5675 133.38125 -165.375 133.0625 C-168 132 -168 132 -170 131 C-168.76468896 118.46251479 -166.29218498 106.31353537 -163.63916016 94.00976562 C-162.47979181 88.55037182 -161.41073889 83.07291425 -160.34423828 77.59472656 C-159.91044126 75.39324201 -159.4601986 73.19610588 -159 71 C-158.85095215 70.26394531 -158.7019043 69.52789062 -158.54833984 68.76953125 C-157.69617398 64.91503847 -157.07564014 62.49966293 -154 60 C-151.79858398 58.89672852 -151.79858398 58.89672852 -149.24609375 57.87890625 C-147.8394043 57.31139648 -147.8394043 57.31139648 -146.40429688 56.73242188 C-145.42525391 56.34634766 -144.44621094 55.96027344 -143.4375 55.5625 C-142.48552734 55.18029297 -141.53355469 54.79808594 -140.55273438 54.40429688 C-138.64014176 53.63743707 -136.72607245 52.87425003 -134.81054688 52.11474609 C-132.11893185 51.04717189 -129.43229103 49.96783655 -126.74609375 48.88671875 C-122.72667863 47.2783955 -118.68684161 45.74785916 -114.625 44.25 C-105.9198065 41.01095518 -97.30640081 37.55345868 -88.69140625 34.08300781 C-83.15211601 31.85402636 -77.60629853 29.64131912 -72.06152344 27.42602539 C-65.65418928 24.86491254 -59.24952919 22.29730742 -52.8473053 19.72344971 C-48.84322723 18.1142058 -44.83826487 16.50716917 -40.83322144 14.90032959 C-38.84205412 14.10086936 -36.85126113 13.3004761 -34.86087036 12.49908447 C-3.81327009 0 -3.81327009 0 0 0 Z " fill="#F2F3F4" transform="translate(220,33)"/>
<path d="M0 0 C0.66 0.33 1.32 0.66 2 1 C-16.30065359 17.8671024 -16.30065359 17.8671024 -21 21 C-21.33 20.01 -21.66 19.02 -22 18 C-25.76624671 16.74458443 -27.37188934 17.62938042 -31 19 C-28.35391704 15.97623979 -25.09879828 14.14178123 -21.65234375 12.171875 C-20.73359215 11.64197968 -20.73359215 11.64197968 -19.79627991 11.10137939 C-18.50583457 10.35936484 -17.21392509 9.61989148 -15.9206543 8.8828125 C-13.93568323 7.74896223 -11.95900049 6.60152822 -9.98242188 5.453125 C-8.72704315 4.73353583 -7.47119945 4.01475708 -6.21484375 3.296875 C-5.07136475 2.64041992 -3.92788574 1.98396484 -2.74975586 1.30761719 C-1.84233643 0.87610352 -0.93491699 0.44458984 0 0 Z " fill="#DFE6EB" transform="translate(218,107)"/>
<path d="M0 0 C0.66 0.33 1.32 0.66 2 1 C1.67 1.99 1.34 2.98 1 4 C1.66 4 2.32 4 3 4 C1.63016497 7.16115776 1.0109362 7.9927092 -2 10 C-2.33 9.01 -2.66 8.02 -3 7 C-6.76624671 5.74458443 -8.37188934 6.62938042 -12 8 C-9.72254211 5.51017465 -7.37664762 3.89631003 -4.4375 2.25 C-3.65246094 1.80140625 -2.86742187 1.3528125 -2.05859375 0.890625 C-1.37925781 0.59671875 -0.69992188 0.3028125 0 0 Z " fill="#C9CDD5" transform="translate(199,118)"/>
<path d="M0 0 C0.33 0.99 0.66 1.98 1 3 C1.99 3.33 2.98 3.66 4 4 C1.36 7.63 -1.28 11.26 -4 15 C-4.66 14.67 -5.32 14.34 -6 14 C-4.02 9.38 -2.04 4.76 0 0 Z " fill="#A8B0BC" transform="translate(166,95)"/>
<path d="M0 0 C0.66 0.33 1.32 0.66 2 1 C-1.96 4.465 -1.96 4.465 -6 8 C-6.33 7.34 -6.66 6.68 -7 6 C-7.66 5.67 -8.32 5.34 -9 5 C-7.54735962 4.1361871 -6.0876837 3.28419546 -4.625 2.4375 C-3.40683594 1.72400391 -3.40683594 1.72400391 -2.1640625 0.99609375 C-1.44992188 0.66738281 -0.73578125 0.33867188 0 0 Z " fill="#949AAD" transform="translate(218,107)"/>
<path d="M0 0 C-0.639375 0.103125 -1.27875 0.20625 -1.9375 0.3125 C-2.618125 0.539375 -3.29875 0.76625 -4 1 C-4.33 1.99 -4.66 2.98 -5 4 C-9.455 4.495 -9.455 4.495 -14 5 C-12.53698952 2.07397905 -10.58977236 1.90294791 -7.5625 0.8125 C-6.57378906 0.44769531 -5.58507812 0.08289063 -4.56640625 -0.29296875 C-2 -1 -2 -1 0 0 Z " fill="#A6ABB3" transform="translate(136,67)"/>
<path d="M0 0 C0 0.66 0 1.32 0 2 C-1.98 2.99 -1.98 2.99 -4 4 C-4 4.66 -4 5.32 -4 6 C-6.97 5.67 -9.94 5.34 -13 5 C-10.54278328 3.36185552 -8.65432189 2.38047801 -5.9375 1.375 C-5.24527344 1.11460938 -4.55304688 0.85421875 -3.83984375 0.5859375 C-2 0 -2 0 0 0 Z " fill="#ADB0BB" transform="translate(166,54)"/>
<path d="M0 0 C-0.3125 1.875 -0.3125 1.875 -1 4 C-1.99 4.66 -2.98 5.32 -4 6 C-4.99 4.68 -5.98 3.36 -7 2 C-4 0 -4 0 0 0 Z " fill="#B9C2CB" transform="translate(211,113)"/>
<path d="M0 0 C-4.95 2.475 -4.95 2.475 -10 5 C-10.66 4.34 -11.32 3.68 -12 3 C-10.3789897 2.30314502 -8.75303934 1.61777139 -7.125 0.9375 C-6.22007812 0.55464844 -5.31515625 0.17179687 -4.3828125 -0.22265625 C-2 -1 -2 -1 0 0 Z " fill="#9A9CA7" transform="translate(189,46)"/>
<path d="" fill="#000000" transform="translate(0,0)"/>
<path d="" fill="#000000" transform="translate(0,0)"/>
<path d="" fill="#000000" transform="translate(0,0)"/>
<path d="" fill="#000000" transform="translate(0,0)"/>
<path d="" fill="#000000" transform="translate(0,0)"/>
<path d="" fill="#000000" transform="translate(0,0)"/>
<path d="" fill="#000000" transform="translate(0,0)"/>
<path d="" fill="#000000" transform="translate(0,0)"/>
<path d="" fill="#000000" transform="translate(0,0)"/>
<path d="" fill="#000000" transform="translate(0,0)"/>
<path d="" fill="#00FF00" transform="translate(0,0)"/>
<path d="" fill="#000000" transform="translate(0,0)"/>
<path d="" fill="#000000" transform="translate(0,0)"/>
<path d="" fill="#000000" transform="translate(0,0)"/>
<path d="" fill="#000000" transform="translate(0,0)"/>
<path d="" fill="#000000" transform="translate(0,0)"/>
<path d="" fill="#000000" transform="translate(0,0)"/>
<path d="" fill="#000000" transform="translate(0,0)"/>
<path d="" fill="#000000" transform="translate(0,0)"/>
<path d="" fill="#000000" transform="translate(0,0)"/>
<path d="" fill="#000000" transform="translate(0,0)"/>
<path d="" fill="#000000" transform="translate(0,0)"/>
<path d="" fill="#000000" transform="translate(0,0)"/>
<path d="" fill="#000000" transform="translate(0,0)"/>
<path d="" fill="#000000" transform="translate(0,0)"/>
<path d="" fill="#000000" transform="translate(0,0)"/>
<path d="" fill="#000000" transform="translate(0,0)"/>
<path d="" fill="#000000" transform="translate(0,0)"/>
<path d="" fill="#000000" transform="translate(0,0)"/>
<path d="" fill="#000000" transform="translate(0,0)"/>
<path d="" fill="#000000" transform="translate(0,0)"/>
<path d="" fill="#000000" transform="translate(0,0)"/>
<path d="" fill="#000000" transform="translate(0,0)"/>
<path d="" fill="#000000" transform="translate(0,0)"/>
<path d="" fill="#000000" transform="translate(0,0)"/>
<path d="" fill="#000000" transform="translate(0,0)"/>
<path d="" fill="#000000" transform="translate(0,0)"/>
<path d="" fill="#000000" transform="translate(0,0)"/>
<path d="" fill="#000000" transform="translate(0,0)"/>
<path d="" fill="#000000" transform="translate(0,0)"/>
<path d="" fill="#000000" transform="translate(0,0)"/>
<path d="" fill="#000000" transform="translate(0,0)"/>
<path d="" fill="#000000" transform="translate(0,0)"/>
<path d="" fill="#000000" transform="translate(0,0)"/>
<path d="" fill="#000000" transform="translate(0,0)"/>
<path d="" fill="#000000" transform="translate(0,0)"/>
<path d="" fill="#000000" transform="translate(0,0)"/>
<path d="" fill="#000000" transform="translate(0,0)"/>
<path d="" fill="#000000" transform="translate(0,0)"/>
<path d="" fill="#000000" transform="translate(0,0)"/>
<path d="" fill="#000000" transform="translate(0,0)"/>
<path d="" fill="#000000" transform="translate(0,0)"/>
<path d="" fill="#000000" transform="translate(0,0)"/>
<path d="" fill="#000000" transform="translate(0,0)"/>
<path d="" fill="#000000" transform="translate(0,0)"/>
<path d="" fill="#000000" transform="translate(0,0)"/>
<path d="" fill="#000000" transform="translate(0,0)"/>
<path d="" fill="#000000" transform="translate(0,0)"/>
<path d="" fill="#000000" transform="translate(0,0)"/>
<path d="" fill="#000000" transform="translate(0,0)"/>
<path d="" fill="#000000" transform="translate(0,0)"/>
<path d="" fill="#000000" transform="translate(0,0)"/>
<path d="" fill="#000000" transform="translate(0,0)"/>
<path d="" fill="#000000" transform="translate(0,0)"/>
<path d="" fill="#000000" transform="translate(0,0)"/>
<path d="" fill="#000000" transform="translate(0,0)"/>
</svg>
